<?xml version="1.0" encoding="utf-8"?>
<!-- Generator: Adobe Illustrator 19.0.0, SVG Export Plug-In . SVG Version: 6.00 Build 0)  -->
<svg version="1.1" id="Vert_1_" xmlns="http://www.w3.org/2000/svg" xmlns:xlink="http://www.w3.org/1999/xlink" x="0px" y="0px"
	 viewBox="0 0 510.2 156" style="enable-background:new 0 0 510.2 156;" xml:space="preserve">
<style type="text/css">
	.st0{fill-rule:evenodd;clip-rule:evenodd;fill:#10120F;}
	.st1{fill-rule:evenodd;clip-rule:evenodd;fill:#F7C825;}
	.st2{fill-rule:evenodd;clip-rule:evenodd;fill:#FCFCFC;}
	.st3{fill-rule:evenodd;clip-rule:evenodd;fill:#FFFFFF;}
	.st4{fill-rule:evenodd;clip-rule:evenodd;fill:#181C19;}
	.st5{fill-rule:evenodd;clip-rule:evenodd;fill:#6C6C6B;}
</style>
<g id="Objet_dynamique_vectoriel_xA0_Image_3_">
	<path class="st0" d="M331.9,58.7c-3,2.5-6,4.9-8.9,7.4c-1.2,1-2.5,2.6-4,1c-1.6-1.7-0.9-3.6,0.6-4.9c3.7-3.1,7.5-6.1,11.2-9.1
		c1.1-0.9,2.2-1.8,3.4-2.5c1.3-0.8,2.7-0.9,3.9,0.1c1.1,0.9,1.2,2.1,0.8,3.4c-1.7,5.7-2.8,11.6-4.8,17.2c-0.6,1.7-1.3,3.1-3.3,2.6
		c-2.1-0.6-2.6-2.3-2.1-4.2C329.5,66,330.9,62.5,331.9,58.7z M334.6,54.9c-0.3,4.3-1.8,8-3.1,11.7c-0.5,1.3-0.9,2.7-0.8,4.2
		c0,0.6-0.1,1.4,0.7,1.5c0.8,0.2,0.9-0.6,1.1-1.2c2.2-5.7,3.2-11.7,4.9-17.4c0.2-0.6,0.2-1.3-0.4-1.7c-0.5-0.5-1.1-0.4-1.7,0
		c-5.3,3.6-10.2,7.7-14.9,12.1c-0.5,0.5-1,1.2-0.3,1.8c0.6,0.5,1.1-0.1,1.6-0.6c2.8-2.9,6.3-5.1,9.3-7.8
		C331.9,56.4,332.8,55.1,334.6,54.9z"/>
	<path class="st1" d="M334.6,54.9c-1.8,0.2-2.6,1.6-3.7,2.5c-3,2.7-6.5,4.9-9.3,7.8c-0.4,0.4-0.9,1.1-1.6,0.6
		c-0.8-0.6-0.2-1.3,0.3-1.8c4.8-4.3,9.6-8.5,14.9-12.1c0.6-0.4,1.1-0.4,1.7,0c0.5,0.5,0.6,1.1,0.4,1.7c-1.8,5.8-2.8,11.8-4.9,17.4
		c-0.2,0.6-0.3,1.4-1.1,1.2c-0.8-0.2-0.6-0.9-0.7-1.5c-0.1-1.5,0.4-2.8,0.8-4.2C332.7,62.8,334.3,59.2,334.6,54.9z"/>
</g>
<g id="Objet_dynamique_vectoriel_xA0_Image_1_">
</g>
<g id="amersLife_xA0_Image_1_">
	<path class="st0" d="M206.4,88c2.2-5.1,4-10.4,7.4-14.9c1.9-2.4,3.9-4.5,6.9-5.5c4.5-1.4,9,0.6,11.4,4.7c2.3,3.9,3.2,8.3,3.5,12.7
		c0.5,7.7,1,15.3,1.4,23c0.2,3.5-1.7,5.3-5.3,5.4c-3.8,0.1-5.7-1.6-5.9-5.1c-0.5-7.8-1-15.7-1.5-23.5c-0.1-1.9-0.4-3.7-1.2-5.5
		c-1.2,0.8-1.7,2-2.3,3.2c-3.4,7.6-6.9,15.1-10.1,22.8c-1.2,2.9-3.1,3.5-5.7,3.6c-2.7,0-4.2-1.5-4.9-3.9c-1.6-5.1-3.2-10.2-4.7-15.3
		c-0.9-3.1-1.7-6.2-2.5-9.2c-0.3-1.2-0.4-2.8-1.7-3c-1.4-0.2-2.3,1.1-2.9,2.3c-2.3,4.3-3.8,8.8-4,13.7c-0.2,5.1-0.2,10.2-0.3,15.3
		c-0.1,3.9-1.9,5.6-5.8,5.5c-3.9-0.1-5.7-1.9-5.5-5.8c0.4-10.6,0.2-21.2,0.3-31.9c0-5.1,4-7.9,8.4-5.5c1.8,0.9,2.5,0.4,3.7-0.6
		c5.9-5.1,15.1-2.5,17.9,4.9C204.3,79.5,205.2,83.7,206.4,88z M206.2,93.7c-0.2,0-0.3-0.1-0.5-0.1c-0.6-2.8-1.1-5.6-1.7-8.3
		c-0.7-2.8-1.5-5.5-2.2-8.2c-0.4-1.3-0.9-2.5-1.8-3.5c-4.8-5.3-10.1-5.5-15.3-0.5c-1.1,1.1-1.8,2.2-3.3,0.2
		c-1.3-1.7-3.3-1.3-5.1-0.6c-1.8,0.7-1.8,2.1-1.8,3.7c0,10.8,0.1,21.6-0.3,32.4c-0.1,3,0.9,3.9,3.9,4c3.1,0,4.1-0.9,4.2-3.8
		c0.1-4.5,0.2-8.9,0.3-13.4c0-5.7,1.5-10.9,4-15.9c1-1.9,2.3-3.9,4.7-3.7c2.5,0.2,2.7,2.7,3.2,4.6c2,7.9,4.5,15.7,7,23.5
		c0.5,1.7,1.3,3.3,3.5,3.3c2.3,0,3.6-0.8,4.5-3.1c3-7.2,6.2-14.3,9.5-21.4c0.9-1.9,2.1-3.7,3.2-5.5c0.9-1.6,1.5-1,2,0.3
		c0.9,2.4,1.5,4.9,1.7,7.5c0.5,7.6,1,15.1,1.5,22.7c0.2,3.1,1.5,4.3,4.5,4.1c2.8-0.2,3.7-1.3,3.6-4.4c-0.4-7.3-0.8-14.6-1.3-21.9
		c-0.3-3.7-0.8-7.4-2.5-10.9c-3.6-7.2-10.5-8-15.6-1.8c-2.3,2.8-4.2,5.9-5.5,9.4C209.2,86.2,207.6,89.9,206.2,93.7z"/>
	<path class="st0" d="M351.4,114.3c-8.7,0-16.5-5.8-19.1-14c-1.1-3.6-0.2-5.9,2.8-6.9c3.6-1.2,6.9,0.3,7.8,3.6
		c1.1,3.7,3.4,6.2,6.7,7.7c2.2,1,4.4,1.4,6.4-0.3c2.1-1.9,3.3-4.3,2.7-7.1c-0.5-2.6-2.7-3.8-5.2-4.3c-4.3-0.9-8.5-1.9-11.9-4.9
		c-4.5-4-6-8.7-4.3-13.8c1.6-4.6,7.1-8.4,12.5-8.7c5.1-0.3,9.8,1.1,14.3,3.5c2.8,1.5,3.8,3.5,3,5.8c-0.7,2.1-3.8,3.7-6.3,3.3
		c-1.5-0.2-2.8-0.9-4.1-1.6c-1.4-0.7-2.9-1.1-4.5-1.3c-1.7-0.2-3.2,0.5-3.8,2.2c-0.6,1.7,0,3.2,1.4,4.2c1.6,1.2,3.5,1.6,5.3,2.1
		c4.3,1.1,8.6,2.3,11.7,6c4.1,5,4.6,10.2,1.1,15.7C364.1,111.4,358.5,114.3,351.4,114.3z M351.6,112.7c6.6,0,11.7-2.9,15.3-8.6
		c2.8-4.4,2.3-8.8-0.8-12.9c-2.8-3.7-6.7-4.9-10.8-5.9c-2.1-0.5-4.3-1-6.1-2.3c-2.2-1.5-3-4.1-2.1-6.3c1-2.5,3-3.4,5.5-3.1
		c2.3,0.2,4.4,1,6.4,2.1c1.8,1,3.7,1.2,5.4-0.1c1.7-1.2,2-3.4,0.3-4.5c-6.3-3.9-13-5.9-20.1-2.6c-6.5,3-8.3,10.6-4,16
		c2.1,2.7,4.8,4.4,8,5.3c2.3,0.7,4.6,1.1,6.8,1.8c3.8,1.2,5.7,4.7,4.8,8.3c-1.3,5.1-4.5,7.7-8.7,6.8c-5-1.1-8.3-4.2-10-9.2
		c-0.9-2.6-3.1-3.7-5.8-2.8c-2.3,0.8-2.8,2.2-1.8,5.2C336.5,107.7,343.5,112.7,351.6,112.7z"/>
	<path class="st0" d="M455.8,94.3c0,4.1,0,8.2,0,12.3c0,3.8-1.8,5.9-5.2,5.8c-4.1,0-6.1-1.9-6.1-5.9c-0.1-7.9-0.4-15.9-0.3-23.8
		c0-2.7-0.9-3-3.1-2.7c-3.8,0.6-6-0.7-6.6-3.8c-0.5-2.5,0.3-4.1,2.7-5c0.6-0.2,1.2-0.3,1.8-0.5c1.7-0.4,4,0.3,4.9-0.9
		c0.9-1.2,0.4-3.4,0.6-5.2c0.6-4.8,1-9.6,3.3-13.9c3.5-6.7,9.8-8.9,16.6-5.7c1.6,0.7,3,1.7,4.5,2.8c1.9,1.4,3.4,2.9,2.2,5.5
		c-1.2,2.7-4.4,4-7,3.3c-1.4-0.4-2.4-1.5-3.5-2.3c-1.3-0.9-2.1-0.8-2.7,0.8c-1.5,4.3-2.1,8.8-2.2,13.4c0,0.9,0.2,1.3,1.2,1.2
		c1.1-0.1,2.3-0.1,3.4,0.1c2.2,0.5,3.9,1.6,3.9,4.3c0,2.8-1.2,4.4-3.8,4.9c-0.1,0-0.2,0-0.3,0.1c-1.4,0.6-3.5-0.8-4.2,0.9
		c-0.6,1.2-0.1,3-0.1,4.5c0,3.3,0,6.6,0,9.9C455.5,94.3,455.6,94.3,455.8,94.3z M456.9,71.1c-3,0.2-3.1,0.2-3.1-0.9
		c0-5.7,0.6-11.4,2.9-16.7c0.8-1.8,1.9-2.1,3.5-1c1.1,0.8,2.3,1.7,3.5,2.3c2,1.1,3.7,0.2,5.1-1.4c0.9-0.9,1.3-1.9,0.4-3.1
		c-2.4-3.5-9.4-6-13.4-4.9c-5.5,1.5-7.5,6.1-8.7,11.1c-1,4.3-1.7,8.8-1.6,13.3c0.1,1.7-0.7,2.1-2.1,2.1c-1.5,0-3,0.1-4.4,0.4
		c-1.8,0.3-3.6,0.9-3.3,3.3c0.3,2.4,1.9,3.3,4.1,3.1c1.1-0.1,2.3-0.2,3.4-0.4c1.8-0.3,2.4,0.2,2.4,2.2c0,8.8,0.3,17.7,0.4,26.5
		c0,1.3,0.1,2.6,1.4,3.1c1.7,0.8,3.5,1.2,5.3,0.2c1.7-0.9,1.5-2.6,1.5-4.2c-0.2-8.7-0.3-17.3-0.5-26c-0.1-1.9,0.2-2.8,2.3-2.6
		c1.2,0.2,2.4,0,3.6-0.1c1.7-0.3,2.5-1.5,2.5-3.2c0.1-1.8-0.9-2.6-2.5-2.9C458.8,71.2,457.9,71.2,456.9,71.1z"/>
	<path class="st0" d="M487.8,114.2c-3.9-0.2-9.2-1.1-13.8-4.1c-8.1-5.4-10.8-12.4-8.4-22.1c2.5-9.9,7-18.2,17.8-20.6
		c7.9-1.8,14.7,0.7,20,6.9c5,5.9,2.7,13.9-4.6,17c-5,2.1-10.2,2.1-15.4,1.4c-1.3-0.2-2.7-0.2-3.9-0.6c-2.3-0.8-2.8,0-2.7,2.3
		c0.3,5.7,2.5,8.4,8,9.6c5.3,1.2,10.4,0.5,15.1-2.6c1.5-1,3.1-2,5.1-1.8c2.7,0.2,4.3,1.9,5.1,4.3c0.7,2.3-0.9,3.5-2.6,4.7
		C502,112.4,495.9,114.3,487.8,114.2z M490.1,112.6c5.7,0.3,11.5-1.9,16.8-5.4c2.4-1.6,2.5-3.3,0.2-5.1c-1.8-1.4-3.6-1.1-5.3,0.1
		c-3.7,2.5-7.8,3.9-12.3,4c-9.6,0.2-14.9-5.2-14.1-14.2c0.2-1.8,0.8-2.1,2.4-1.8c3.3,0.6,6.5,1.1,9.8,1.3c4.6,0.3,9.1-0.4,13-3.1
		c4.7-3.3,5.4-8.9,1.5-13.2c-5.3-5.9-11.8-8.2-19.4-6c-9.8,2.8-13.6,10.9-15.8,20.1c-2.5,9.9,3.3,17.9,11.5,21.3
		C481.9,112,485.6,112.7,490.1,112.6z"/>
	<path class="st0" d="M261,114.2c-3.5-0.2-8.9-1-13.5-4.3c-8-5.6-10.6-12.3-8.2-22c2.5-9.9,7-18.2,17.7-20.6
		c7.9-1.8,14.7,0.7,20,6.9c5,5.9,2.7,13.9-4.6,17c-5,2.1-10.2,2.1-15.4,1.5c-1.4-0.2-2.8-0.2-4.1-0.6c-2-0.7-2.5,0-2.4,2.1
		c0.3,5.9,2.5,8.7,8.2,9.9c5.5,1.1,10.5,0.3,15.3-2.9c3.6-2.4,6.6-2,8.6,0.6c2,2.6,1.6,4.7-1,6.5C275.9,112.2,269.8,114.4,261,114.2
		z M264.4,112.6c5.2,0.1,10.9-1.9,16.1-5.4c2.3-1.6,2.4-3.1,0.3-4.9c-1.7-1.5-3.6-1.3-5.3-0.1c-3.9,2.6-8.1,4.1-12.8,4
		c-9.5-0.1-14.3-5.1-13.8-14c0.1-2,0.8-2.4,2.6-2c1.9,0.4,3.8,0.7,5.7,0.9c5.5,0.7,11,0.9,16-2.1c5.5-3.2,6.6-9.3,2.4-14
		c-5.2-5.8-11.8-8-19.2-5.9c-9.9,2.8-13.6,10.9-15.9,20.1c-2.5,9.8,3.1,17.8,11.3,21.2C255.5,112,259.3,112.6,264.4,112.6z"/>
	<path class="st0" d="M372.2,57.6c0-3.9,1.7-5.7,5.3-5.7c4.2,0,6,1.6,6.1,5.5c0.4,14.7,0.8,29.4,1.1,44.2c0,2.4,0.8,2.7,2.9,2.4
		c6.2-1,12.3-2.3,18.4-3.9c0.9-0.2,1.9-0.4,2.8-0.4c2.8,0,4.8,1.8,5.1,4.7c0.3,2.2-1,4-3.8,4.6c-7.9,1.9-15.8,3.5-23.8,4.9
		c-1.9,0.3-3.8,0.6-5.7,0.5c-4.2-0.4-6.7-2.9-6.9-7.2c-0.4-8.4-0.7-16.8-1.1-25.1C372.4,81.9,372.2,65.7,372.2,57.6z M374.1,82.1
		c0.4,8.3,0.8,16.6,1.1,24.9c0.2,3.6,2,5.5,5.6,5.7c3,0.2,5.9-0.5,8.8-1.1c6.4-1.3,12.8-2.5,19.2-3.9c1.9-0.4,4-0.9,3.4-3.7
		c-0.4-2.2-2.2-3.1-4.9-2.6c-0.7,0.1-1.4,0.3-2,0.5c-6.2,1.6-12.4,3-18.7,3.9c-3.2,0.4-3.2,0.5-3.3-2.9c-0.4-15.1-0.9-30.2-1.2-45.3
		c-0.1-2.9-1-3.9-4.5-4c-2.7-0.1-3.8,1.2-3.8,4.2C373.8,65.8,374,82.1,374.1,82.1z"/>
	<path class="st0" d="M156.1,84.5c0.2-3.1-0.8-5.5-2.4-7.7c-1-1.3-2.4-1.7-3.9-1.5c-2.1,0.3-4.1,0.9-6,1.7c-1.5,0.7-3.1,1.3-4.7,1.6
		c-2.8,0.6-5.8-1.3-6.4-3.9c-0.6-2.4,0.6-4.6,3.5-5.8c3.2-1.3,6.5-2.5,9.9-3.4c8.4-2.2,19.6,1.7,21.7,15.7c1.4,9.4,1,18.7,0.6,28.1
		c-0.1,2.6-1.8,4.2-4.2,4.9c-2.7,0.8-5.7-0.1-6.7-2.3c-0.9-1.9-1.8-1.5-3.2-0.9c-5.2,2.2-10.4,2.9-15.8,1c-9.7-3.3-12.9-15-6.3-23
		c5.1-6.2,12.6-8.4,20.6-5.8C153.7,83.5,154.7,84,156.1,84.5z M157.7,86.9c-1.7-0.7-3.2-1.3-4.6-1.9c-4.2-1.7-8.5-1.7-12.8-0.2
		c-6.8,2.4-10.9,9.1-9.9,16.1c0.8,5.9,6.6,10.2,13.7,10.5c4.3,0.2,8.2-1.4,12.1-3c1.2-0.5,1.8-0.6,2,1.1c0.3,2.6,2.2,3.2,4.4,3.2
		c2.3-0.1,4-1.1,4.1-3.6c0.5-10.2,1.1-20.3-1.2-30.4c-1.4-6.2-5.2-10.2-11.3-11.7c-6.8-1.7-12.8,1.3-18.8,4.2c-2.1,1-1.8,3.7,0.2,5
		c1.7,1.1,3.5,0.9,5.3,0.2c2.7-1.1,5.3-2.3,8.2-2.7c2.9-0.4,5.1,0.6,6.6,3.2C157.5,80,158.1,83.2,157.7,86.9z"/>
	<path class="st0" d="M297.1,102.6c0,2,0,3.9,0,5.9c-0.1,3.6-1.8,5.3-5.5,5.3c-3.9,0-5.7-1.5-5.9-5.1c-0.3-8.1-0.5-16.2-0.7-24.4
		c0-1.2-0.1-2.5-0.2-3.7c-0.3-5.1,4-8.1,8.4-5.6c1.6,0.9,2.3,0.5,3.4-0.5c5-4.4,10.6-7.2,17.5-5.9c8.8,1.7,11.1,10.8,10.6,17.3
		c-0.2,2.2-2.5,3.6-5.4,3.7c-2.9,0.1-5-1.3-5.6-3.8c-0.4-1.8-0.6-3.7-1-5.5c-0.4-2.2-1.7-2.7-3.7-1.9c-3.2,1.5-5.8,3.6-7.6,6.7
		C297.5,92,296.9,94.4,297.1,102.6z M294.8,78.5c-0.6-0.7-1.1-1.4-1.7-1.9c-1.7-1.3-3.5-0.9-5.2-0.2c-1.2,0.5-1.6,1.6-1.5,2.9
		c0.5,9.8,0.9,19.6,1,29.4c0,2.6,1.5,3.6,4.5,3.5c2.6-0.1,3.6-1.1,3.6-3.8c0-3.7-0.1-7.5-0.2-11.2c0-1.3,0-2.5,0.6-3.6
		c1.5-3,2.8-6.1,4.4-9.1c1.7-3.3,4.4-5.6,7.6-7.1c3.9-1.9,5.9-0.9,6.8,3.4c0.2,1.1,0.3,2.3,0.5,3.4c0.5,3,1.9,4.1,4.9,3.8
		c2.7-0.3,3.5-1.4,3.3-4.6c-0.1-1.2-0.2-2.3-0.5-3.4c-1.5-7.1-6.8-10.8-13.9-9.8C303.1,70.9,298.9,74.3,294.8,78.5z"/>
	<path class="st0" d="M419.2,94.2c0-5.4,0-10.7,0-16.1c0-3.6,1.4-5,4.9-5.1c1.4-0.1,2.8,0.2,4.1,0.7c1.5,0.6,2.3,1.7,2.3,3.5
		c-0.1,11,0,22-0.1,32.9c0,3.7-1.7,5.2-5.4,5.1c-4.4-0.1-5.8-1.3-5.8-5.3C419.2,104.7,419.2,99.4,419.2,94.2z M420.7,93.9
		c0,5.5,0,11.1,0,16.6c0,0.8-0.3,1.7,0.5,2.2c1.9,1.2,3.9,1.3,6,0.6c1.9-0.7,1.5-2.4,1.5-3.8c0-10.5,0-21,0-31.6
		c0-2.4-0.9-3.2-4.2-3.3c-3.1-0.1-3.9,0.6-3.9,3.2C420.7,83.2,420.7,88.5,420.7,93.9z"/>
	<path class="st0" d="M425.4,59.7c-3.4,0-6.5-2.8-6.4-5.7c0-2.8,3.2-5.4,6.5-5.3c3.5,0.1,6,2.5,6,5.7
		C431.4,57.6,428.9,59.7,425.4,59.7z M425.5,58.1c2.5,0,4.5-1.6,4.5-3.8c0-2.1-2-4-4.4-4.1c-2.2-0.1-5,1.9-5.1,3.7
		C420.4,55.9,423,58.1,425.5,58.1z"/>
	<path class="st1" d="M206.2,93.7c1.5-3.8,3-7.5,4.4-11.3c1.3-3.5,3.2-6.6,5.5-9.4c5-6.3,11.9-5.4,15.6,1.8
		c1.7,3.4,2.2,7.1,2.5,10.9c0.5,7.3,0.9,14.6,1.3,21.9c0.2,3.1-0.8,4.2-3.6,4.4c-3,0.2-4.3-1-4.5-4.1c-0.5-7.6-1-15.1-1.5-22.7
		c-0.2-2.6-0.8-5.1-1.7-7.5c-0.5-1.3-1.1-1.8-2-0.3c-1.1,1.8-2.3,3.6-3.2,5.5c-3.2,7.1-6.5,14.2-9.5,21.4c-0.9,2.3-2.2,3.1-4.5,3.1
		c-2.3,0-3-1.6-3.5-3.3c-2.4-7.8-5-15.6-7-23.5c-0.5-2-0.8-4.4-3.2-4.6c-2.4-0.2-3.7,1.8-4.7,3.7c-2.5,5-4,10.2-4,15.9
		c0,4.5-0.1,8.9-0.3,13.4c-0.1,2.9-1.1,3.8-4.2,3.8c-3,0-4.1-1-3.9-4c0.4-10.8,0.3-21.6,0.3-32.4c0-1.6,0-3.1,1.8-3.7
		c1.8-0.7,3.9-1.1,5.1,0.6c1.5,2,2.2,0.9,3.3-0.2c5.1-5,10.5-4.8,15.3,0.5c0.9,1,1.4,2.2,1.8,3.5c0.8,2.7,1.6,5.5,2.2,8.2
		c0.7,2.8,1.2,5.6,1.7,8.3C205.8,93.6,206,93.6,206.2,93.7z"/>
	<path class="st1" d="M351.6,112.7c-8.1,0-15.1-5-17.7-12.6c-1-2.9-0.5-4.4,1.8-5.2c2.8-0.9,5,0.1,5.8,2.8c1.6,5,5,8.1,10,9.2
		c4.2,0.9,7.4-1.7,8.7-6.8c0.9-3.6-1-7.1-4.8-8.3c-2.2-0.7-4.6-1.1-6.8-1.8c-3.2-1-5.9-2.7-8-5.3c-4.3-5.4-2.5-13,4-16
		c7.2-3.3,13.8-1.3,20.1,2.6c1.7,1,1.4,3.3-0.3,4.5c-1.8,1.3-3.6,1-5.4,0.1c-2-1.1-4.2-1.9-6.4-2.1c-2.5-0.2-4.5,0.6-5.5,3.1
		c-0.9,2.2,0,4.8,2.1,6.3c1.8,1.3,4,1.7,6.1,2.3c4.1,1,8,2.3,10.8,5.9c3.1,4.1,3.6,8.5,0.8,12.9
		C363.4,109.8,358.3,112.7,351.6,112.7z"/>
	<path class="st2" d="M456.9,71.1c1,0.1,1.9,0.1,2.8,0.3c1.5,0.3,2.5,1.1,2.5,2.9c-0.1,1.7-0.8,2.9-2.5,3.2
		c-1.2,0.2-2.5,0.3-3.6,0.1c-2.1-0.3-2.4,0.7-2.3,2.6c0.2,8.7,0.3,17.3,0.5,26c0,1.6,0.2,3.3-1.5,4.2c-1.8,1-3.6,0.5-5.3-0.2
		c-1.3-0.6-1.4-1.8-1.4-3.1c-0.1-8.8-0.4-17.7-0.4-26.5c0-2-0.6-2.5-2.4-2.2c-1.1,0.2-2.2,0.4-3.4,0.4c-2.2,0.1-3.8-0.8-4.1-3.1
		c-0.3-2.4,1.5-3,3.3-3.3c1.5-0.2,2.9-0.4,4.4-0.4c1.5,0,2.2-0.4,2.1-2.1c-0.2-4.5,0.5-8.9,1.6-13.3c1.2-5,3.1-9.5,8.7-11.1
		c4.1-1.1,11,1.4,13.4,4.9c0.8,1.2,0.4,2.2-0.4,3.1c-1.4,1.5-3.1,2.5-5.1,1.4c-1.2-0.7-2.3-1.5-3.5-2.3c-1.6-1.1-2.7-0.8-3.5,1
		c-2.3,5.3-2.8,11-2.9,16.7C453.8,71.3,453.9,71.3,456.9,71.1z"/>
	<path class="st2" d="M490.1,112.6c-4.5,0.1-8.2-0.6-11.7-2c-8.3-3.4-14-11.4-11.5-21.3c2.3-9.2,6-17.3,15.8-20.1
		c7.6-2.2,14.2,0.1,19.4,6c3.8,4.3,3.1,9.9-1.5,13.2c-3.9,2.8-8.4,3.5-13,3.1c-3.3-0.2-6.6-0.8-9.8-1.3c-1.7-0.3-2.3,0-2.4,1.8
		c-0.8,9,4.5,14.3,14.1,14.2c4.5-0.1,8.6-1.5,12.3-4c1.8-1.2,3.6-1.5,5.3-0.1c2.3,1.8,2.2,3.5-0.2,5.1
		C501.6,110.7,495.8,112.9,490.1,112.6z M488.7,86.4c1,0,1.9,0.1,2.9,0c3.5-0.4,5-2,4.7-5c-0.2-2.8-3.7-5.9-7.2-6.3
		c-4.8-0.6-11.1,4-12.2,9c-0.3,1.3,0.7,1.1,1.2,1.1C481.6,85.6,485.1,86.5,488.7,86.4z"/>
	<path class="st1" d="M264.4,112.6c-5.1,0-8.9-0.6-12.6-2.2c-8.1-3.4-13.7-11.4-11.3-21.2c2.3-9.2,6-17.3,15.9-20.1
		c7.5-2.1,14,0.1,19.2,5.9c4.2,4.7,3.1,10.7-2.4,14c-5.1,3-10.5,2.7-16,2.1c-1.9-0.2-3.8-0.5-5.7-0.9c-1.8-0.4-2.5,0-2.6,2
		c-0.6,8.9,4.3,13.9,13.8,14c4.7,0,8.9-1.5,12.8-4c1.8-1.2,3.6-1.4,5.3,0.1c2.1,1.8,2,3.3-0.3,4.9
		C275.3,110.7,269.6,112.7,264.4,112.6z M262,86.5c1.5,0,3,0.1,4.4-0.3c3.6-1,4.7-4.7,2.4-7.7c-3.4-4.2-9.5-4.8-13.5-1.2
		c-1.9,1.7-3.2,3.9-4.5,6.2c-0.7,1.2-0.2,1.6,0.9,1.7C255.1,85.6,258.5,86.5,262,86.5z"/>
	<path class="st2" d="M373.8,57.7c0-3.1,1-4.3,3.8-4.2c3.5,0.1,4.5,1.1,4.5,4c0.3,15.1,0.8,30.2,1.2,45.3c0.1,3.4,0.1,3.3,3.3,2.9
		c6.3-0.9,12.5-2.2,18.7-3.9c0.7-0.2,1.4-0.3,2-0.5c2.7-0.5,4.5,0.4,4.9,2.6c0.5,2.8-1.5,3.3-3.4,3.7c-6.4,1.4-12.8,2.6-19.2,3.9
		c-2.9,0.6-5.8,1.2-8.8,1.1c-3.6-0.2-5.4-2-5.6-5.7c-0.4-8.3-0.8-16.6-1.1-24.9C374,82.1,373.8,65.8,373.8,57.7z"/>
	<path class="st1" d="M157.7,86.9c0.5-3.8-0.2-7-2-10c-1.5-2.6-3.7-3.6-6.6-3.2c-2.9,0.4-5.5,1.6-8.2,2.7c-1.8,0.7-3.6,1-5.3-0.2
		c-2-1.3-2.3-4.1-0.2-5c5.9-2.8,11.9-5.8,18.8-4.2c6.1,1.5,9.9,5.5,11.3,11.7c2.3,10,1.7,20.2,1.2,30.4c-0.1,2.5-1.8,3.6-4.1,3.6
		c-2.2,0.1-4.1-0.5-4.4-3.2c-0.2-1.7-0.7-1.6-2-1.1c-3.9,1.6-7.8,3.1-12.1,3c-7.1-0.3-12.9-4.6-13.7-10.5c-1-7,3.1-13.7,9.9-16.1
		c4.3-1.5,8.6-1.6,12.8,0.2C154.5,85.6,156,86.2,157.7,86.9z M158.2,97.3c0.2-2.2-0.7-3.7-2.6-4.4c-2-0.8-4-1.7-6.1-2.3
		c-5.6-1.8-10.3,1.4-11.1,7.4c-0.6,4.6,2.3,7.7,6.8,7.1c3.7-0.5,7.3-1.6,10.6-3.5C157.6,100.6,158.5,99.3,158.2,97.3z"/>
	<path class="st1" d="M294.8,78.5c4.1-4.2,8.3-7.6,14.1-8.4c7-1,12.4,2.6,13.9,9.8c0.2,1.1,0.4,2.3,0.5,3.4c0.2,3.2-0.5,4.3-3.3,4.6
		c-3,0.3-4.4-0.8-4.9-3.8c-0.2-1.1-0.3-2.3-0.5-3.4c-0.9-4.3-2.9-5.3-6.8-3.4c-3.2,1.6-5.9,3.9-7.6,7.1c-1.5,3-2.9,6.1-4.4,9.1
		c-0.6,1.2-0.6,2.4-0.6,3.6c0.1,3.7,0.2,7.5,0.2,11.2c0,2.7-1,3.7-3.6,3.8c-3.1,0.1-4.5-0.9-4.5-3.5c-0.1-9.8-0.4-19.6-1-29.4
		c-0.1-1.3,0.3-2.3,1.5-2.9c1.8-0.7,3.6-1.1,5.2,0.2C293.7,77.1,294.1,77.8,294.8,78.5z"/>
	<path class="st2" d="M420.7,93.9c0-5.3,0-10.7,0-16c0-2.6,0.9-3.3,3.9-3.2c3.2,0.1,4.2,0.8,4.2,3.3c0,10.5,0,21,0,31.6
		c0,1.5,0.4,3.2-1.5,3.8c-2.1,0.7-4.1,0.6-6-0.6c-0.8-0.5-0.5-1.4-0.5-2.2C420.7,104.9,420.7,99.4,420.7,93.9z"/>
	<path class="st2" d="M425.5,58.1c-2.5,0-5.1-2.2-5-4.2c0.1-1.8,2.9-3.8,5.1-3.7c2.4,0.1,4.4,2,4.4,4.1
		C430,56.5,428,58.2,425.5,58.1z"/>
	<path class="st0" d="M488.7,86.4c-3.6,0.1-7.1-0.8-10.6-1.3c-0.5-0.1-1.5,0.2-1.2-1.1c1.1-4.9,7.4-9.6,12.2-9
		c3.5,0.4,7,3.5,7.2,6.3c0.2,3.1-1.2,4.6-4.7,5C490.6,86.5,489.7,86.4,488.7,86.4z M479.1,83.6c4.3,0.8,8.5,1.6,12.7,1.1
		c2.9-0.3,4-2.6,2.5-4.9c-2.3-3.5-7.6-4.5-10.9-1.8C481.5,79.5,480,81.2,479.1,83.6z"/>
	<path class="st0" d="M262,86.5c-3.5,0-6.9-0.9-10.3-1.3c-1.1-0.1-1.6-0.5-0.9-1.7c1.3-2.3,2.6-4.4,4.5-6.2c4-3.6,10.1-3,13.5,1.2
		c2.4,3,1.2,6.6-2.4,7.7C265,86.6,263.5,86.4,262,86.5z M252.8,83.6c4.1,0.8,8.2,1.5,12.4,1.1c1.2-0.1,2.6-0.3,3-1.7
		c0.5-1.5,0.2-3-1.2-4.1c-0.6-0.4-1.1-0.9-1.7-1.3C260.6,74.9,255.4,77.3,252.8,83.6z"/>
	<path class="st0" d="M158.2,97.3c0.2,2-0.7,3.3-2.4,4.3c-3.3,2-6.9,3-10.6,3.5c-4.5,0.6-7.4-2.5-6.8-7.1c0.7-6,5.4-9.2,11.1-7.4
		c2.1,0.6,4.1,1.5,6.1,2.3C157.6,93.6,158.5,95.1,158.2,97.3z M144.5,103.5c2.7,0,7.2-1.4,10.2-3c1.5-0.8,2-1.8,2.1-3.6
		c0-1.8-1.1-2.3-2.3-2.8c-1.8-0.8-3.7-1.6-5.6-2.1c-4.8-1.4-8.9,1.9-8.9,7C140,102,141.5,103.6,144.5,103.5z"/>
	<path class="st1" d="M22,135.8c0.7-0.5,0.8-1.2,0.7-1.9l0,0c0.7-0.4,0.6-1,0.5-1.6c0.5-0.5,0.6-1.3,0.3-1.8
		c-0.3-0.6-1.1-0.3-1.7-0.3c-0.2,0-0.4,0.1-0.5,0.1c-3.2,0.6-6.4,1.1-9.7,1.7c-1.6,0.3-2.2-0.3-1.7-1.9c0.7-2.3,1-4.6,1.4-6.9
		c0.3-1.7,0.9-3.4,0.9-5.1c0-1.7-0.2-1.7-1.7-1.1c-0.9,0.4-1.6,1-2.7,1.1c-1.5,0.1-1.7-0.2-1.1-1.6c1.1-2.6,2.3-5.1,3.3-7.8
		c0.7-1.8,2.3-3.1,2.7-5.1c0.1-0.4,0.7-0.8,0.1-1.3c-0.5-0.4-0.9-0.1-1.3,0.2c-2.3,1.3-5,2-7.2,3.5c-0.3,0.2-0.7,0.6-1.1,0.2
		c-0.4-0.4,0.1-0.8,0.2-1.1c0.1-0.2,0.2-0.4,0.4-0.6c1.8-2.3,3.2-4.8,4.8-7.2c0.9-1.4,0.8-1.9-0.6-2.7C7,94,5.8,93.7,4.6,93.4
		c-0.8-0.2-1.2-0.6-0.4-1.3c1.4-1.3,2.7-2.6,4.4-3.4c1.3-0.6,1.1-1.1,0.5-2.1c-1.4-2.3-3.5-3.9-5.4-5.7c-0.7-0.6-0.8-1.1-0.1-1.9
		c1.2-1.4,2.3-2.8,3.4-4.3c1-1.3,1.8-2.8,3-4c0.5-0.4,1.4-1,1-1.7c-0.4-0.6-1.4-0.6-2.2-0.6c-0.2,0-0.4,0.2-0.7,0.2
		c-0.9,0.1-1.7,0.3-2.6,0.4c-0.8,0.1-0.8-0.4-0.5-1c0.6-0.9,1.1-1.8,1.9-2.6c2.6-2.8,4.5-6,7.4-8.5c0.4-0.3,0.8-0.7,0.3-1.3
		c-0.9-1.1-1.1-2.6-2.2-3.5c-0.6-0.5-0.5-1.1,0.1-1.5c0.8-0.5,1.6-1.1,2.6-1.2c1.3-0.1,1.6-0.7,1.2-2.2c0-0.2-2.1-2.9-2.2-3.1
		c-0.3-2,1.6-1.6,4.1-2.3c1.4-0.7,2.7-1.4,4.1-2c0.4-0.2,0.8-0.4,1-0.9c0.7-2.2,1.6-4.4,2.2-6.7c0.6-2.2,1.3-4.4,2.2-6.5
		c0.4-0.9,0.9-0.8,1.5-0.3c0.6,0.6,1.3,1.2,1.8,1.9c0.9,1.1,2,1.2,3.2,0.6c0.2-0.1,0-0.4,0.1-0.5c0.9-1.5,1.8-2.5,3.4-1.5
		c0.7,0.4,1.2-0.6,1-1.7c-0.3-2.1,0.2-3,1-4.6c0.2-0.6,0.6-1.2,1.3-1c1.3,0.2,2.7,0.2,3.9,0.8c0.7,0.4,1.4,0.3,2.2,0.2
		c0.4,0,0.7-0.2,0.7-0.7c0-1.8,0-3.5-0.7-5.2c-0.4-0.8-0.5-1.7-0.7-2.6c-0.2-0.9,0-1.6,1.1-1.2c0.9,0.3,1.9,0.5,2.7,1
		c1.2,0.6,2.5,0.7,3.7,1c0.5,0.1,1.1-0.1,1.1-0.8c0-0.6-0.2-1.1-0.9-1.1c-0.3,0-0.6,0-0.8,0c-1.2-0.1-1.4-0.6-1-1.7
		c0.8-1.9,1.6-3.8,2.7-5.6c0.7-1.1,1-1.3,1.9-0.4c1.4,1.4,2.2,3.1,3,4.9c0.1,0.3-0.1,1,0.6,0.9c0.5-0.1,0.7-0.5,1-0.9
		c0.5-0.9,0.1-1.9,0.5-2.8c0.2-0.5,0.4-1.1,1-1.2c0.5-0.1,0.8,0.4,1.1,0.8c1.9,2.7,4.3,4.9,6.5,7.4c0.5,0.7,1.2,0.1,1.7,0.8
		c0.2,0.3,0.4,0.6,0.8,0.2c1.9-1.9,2.7-3.9,4.4-5.1c0.8-1,1.5-2,2.3-3c1.2-1.5,1.6-1.4,2.2,0.4c0.7,1.9,1,3.9,1.7,5.8
		c0.8,2.2,1.3,4.4,1.9,6.7c0.3,1.2,0.4,2.5,1.5,3.2c1.4,0.8,2.2-0.5,3.3-1.1c3.3-2,6.4-4.4,9.4-6.9c1.3-1.1,1.4-1,1.7,0.7
		c0.7,3.4,1.1,6.8,2.4,10c0.6,1.3,1.3,1.8,2.7,1.4c1-0.3,2-0.5,2.8-1.1c0.3-0.2,0.8-0.4,1.2-0.1c0.4,0.3,0.1,0.7,0,1
		c-0.5,2.1-0.9,4.2-1.3,6.4c-0.2,1.1-0.3,1.9,1,2.1c0.5,0.1,0.8,0.5,1.1,0.9c2.8,3.3,4.6,7.2,6.5,11c0.4,0.7,0.6,1.3-0.1,1.7
		c-1.3,0.7-1.8,1.9-2.2,3.1c-0.3,0.9-1.7,1.5-1.1,2.8c0.5,1-0.3,1.5-1,1.5c-2.9-0.1-5.6-4.7-4.2-7.3c1.1-2.3,3-3.8,5.4-4.5
		c0.5-0.1,0.8,0.1,1-0.6c-1.3-0.7-1.8,0.1-3,0.6c-2.8,1-5.1,3.7-4.7,6.5c0.4,3,3.4,6.5,6.1,6.6c3.4,0.1,6.7-0.3,9.5-2.5
		c0.2-0.2,0.5-0.4,0.8-0.4c0.2-0.1,0.6-0.2,0.7,0.2c0.1,0.2,0.2,0.7,0,0.8c-2.3,2.4-1.7,5.5-2.4,8.3c-0.1,0.4-0.5,1.2,0.3,1.7
		c1.2,0.7,0.9,2.2,0.3,3c-2.1,2.4-4.4,4.7-7.2,6.2c-2.3,1.2-4.5,2.5-6.7,3.9c-2.2,1.4-4.1,3.1-6.9,3.3c-0.8,0-1.1,0.6-1.6,1.1
		c-0.4,0.4-0.5,0.7,0,0.6c0.4,0,0.8-0.1,1.2-0.2c2.1-0.5,3.9-1.6,5.9-2.5c1.6-0.7,1.8-0.6,2.8,0.9c1.6,2.4,2.3,5,2.9,7.8
		c0.5,2.7,1.6,5.3,2,8.1c0.7,5.4,0.6,10.8,0.1,16.3c-0.3,3.6-1.7,6.8-3.1,9.9c-1.6,3.6-3.5,7.1-5.4,10.6c-2.6,4.8-6.3,8.4-10.5,11.4
		c-3.3,2.3-6.7,4.6-10.3,6.2c-1.8,0.8-3.7,1.6-5.7,0.9c-1.5-0.5-2.9-0.4-4.3,0.2c-1.2,0.5-2.5,0.3-3.6,0.8c-0.3,0.1-0.9,0.2-1.2-0.2
		c-0.3-0.4,0.2-0.8,0.4-1.1c0.4-0.7,0.9-1.4,1.3-2.2c0.9-1.5,1.8-3.1,2.6-4.7c0.3-0.5,0.5-1.2-0.1-1.5c-0.6-0.4-0.9,0.2-1.2,0.7
		c-1.1,1.4-2,2.9-2.7,4.6c-0.7,1.4-1.4,2.8-2.4,4c-0.2,0.2-0.3,0.5-0.6,0.4c-0.3-0.1-0.3-0.4-0.3-0.7c0-0.8-0.1-1.7,0.3-2.5
		c0.3-0.8,0.7-1.6,0-2.2c-0.8-0.7-1.4,0.3-2.1,0.5c-0.1,0-0.2,0.1-0.3,0.2c-2.2,1.9-4.8,3.3-6.8,5.5c-0.8,0.9-1.4,0.8-1.9-0.3
		c-1.4-2.8-2.9-5.5-4.6-8.1c-0.8-1.3-1.5-1.2-2.5-0.1c-0.8,1-1.3,2.2-2.2,3.1c-2.2,2.2-2.2,2.2-3-0.8c-0.3-1.2-0.4-2.3-0.6-3.5
		c-0.1-0.5-0.3-1.1-0.8-1.3c-0.6-0.3-0.7,0.4-1,0.7c-1,1.3-2,2.6-3,3.9c-0.3,0.4-0.5,0.9-1,0.8c-0.6-0.1-0.5-0.8-0.6-1.3
		c-0.1-1.5-0.2-2.9-1-4.2c-0.4-0.7-0.8-0.9-1.4-0.2c-1.2,1.4-2.4,2.7-3.7,4.1c-0.3,0.3-0.7,1-1.2,0.7c-0.6-0.3-0.5-1-0.5-1.5
		c0.2-1.9,0.1-3.9,0.5-5.8c0.2-0.7,0.4-1.7-0.7-1.8c-1.1-0.1-2.2-0.3-3.4,0.3c-2,1-3.9,2.1-5.9,3.1c-0.3,0.1-0.6,0.4-0.9,0.2
		c-0.4-0.3-0.1-0.7,0-1c0.5-1,1-2,1.5-3c0.2,0,0.3-0.1,0.2-0.3C22,135.9,22,135.8,22,135.8z M76.9,129.7c0-1.2-0.7-1.7-2.2-1.3
		c-1.7,0.5-3.4,1.2-5.1,1.7c-0.5,0.1-1.1,0.5-1.4,0.1c-0.4-0.5,0.2-1,0.4-1.5c1.8-3.1,3.5-6.3,5.3-9.4c0.3-0.5,0.4-1,0.4-1.6
		c0-0.4,0-0.9-0.5-1.1c-0.5-0.2-0.8,0.1-1.1,0.5c-1.6,2.2-3.3,4.3-4.5,6.8c-1.2,2.6-2.2,5.3-3.9,7.6c-0.2,0.3-0.4,0.6-0.2,1
		c0.2,0.4,0.6,0.3,1,0.4c0.8,0.1,1.4-0.5,2.1-0.7c2.8-0.8,5.7-1.2,8.6-1.4C76.4,130.8,77,130.8,76.9,129.7z M70.4,91.2
		c0.6,0.1,1.3,0.2,1.9-0.1c2-0.8,4-1.1,6.1-1.2c1-0.1,2,0,2.9-0.2c0.5-0.1,1.3-0.2,1-1.2c-0.3-0.9-2.4-1.6-3.4-1.3
		c-2.3,0.9-4.6,2-7,2.6c-0.6,0.1-1.3,0.6-1.8,0c-0.5-0.6-0.1-1.3,0.1-2c0.4-1.6,0.8-3.3,1.2-4.9c0.1-0.5,0.2-1-0.5-1.1
		c-0.6-0.1-0.8,0.4-0.9,0.9c-0.5,2.2-1.5,4.1-2.4,6.1c-0.5,1.3,0,2.2,1.3,2.4C69.5,91.2,69.9,91.2,70.4,91.2z M72.3,45.7
		c-0.8,0.1-1.7,0.1-2.5,0.2c-0.5,0.1-0.9,0.3-0.8,0.9c0.5,2.2,1.6,4.1,3.2,5.6c0.5,0.5,1,0.2,1.4-0.3c0.5-0.5,0.3-0.8,0-1.2
		c-0.6-0.8-1.2-1.5-1.8-2.3c-0.8-1.1-0.6-1.6,0.8-1.8c0.8-0.1,1.6,0,2.3,0c1.8,0.1,3.4,1,5.2,1.2c0.3,0,0.7,0.2,0.8-0.3
		c0.1-0.4-0.3-0.5-0.7-0.6C77.8,46.2,75.1,45.6,72.3,45.7z M90.7,25.4c-1,0-1.5,0.7-2.1,1.4c-1.4,1.7-2.4,3.8-4.2,5.2
		c-0.3,0.2-1,0.6-0.4,1.1c0.5,0.4,1.3,0.9,1.9,0c1-1.5,2.3-2.8,3.2-4.4c0.6-1.1,1.3-1.3,2.2-0.4c0.9,0.9,2,1.5,2.8,2.6
		c0.4,0.5,1,0.6,1.4,0.1c0.4-0.5,0.1-0.9-0.3-1.2c-1.2-1-2-2.3-3.1-3.5C91.7,25.9,91.3,25.5,90.7,25.4z"/>
	<path class="st3" d="M116.5,41.3c0,0-2-0.3-4.4,1l-3.3,3l-0.5,2.9l1.2,3.6l2.3,1.9l2.9,0.5l2.6-3.8l1.4-3.6l-0.3-2.6l-1.1-2.7
		L116.5,41.3z"/>
	<path class="st4" d="M70.7,11.6c-2.2-2.5-4.6-4.6-6.5-7.4c-0.3-0.4-0.6-0.9-1.1-0.8c-0.6,0.1-0.8,0.7-1,1.2c-0.4,0.9,0,1.9-0.5,2.8
		c-0.2,0.4-0.4,0.8-1,0.9c-0.7,0.1-0.5-0.6-0.6-0.9c-0.8-1.8-1.6-3.5-3-4.9c-0.9-0.9-1.3-0.8-1.9,0.4c-1,1.8-1.9,3.6-2.7,5.6
		c-0.5,1.1-0.2,1.6,1,1.7c0.3,0,0.6,0,0.8,0c0.7,0,1,0.5,0.9,1.1c0,0.7-0.6,0.9-1.1,0.8c-1.2-0.3-2.5-0.4-3.7-1
		c-0.9-0.4-1.8-0.7-2.7-1c-1.1-0.4-1.3,0.3-1.1,1.2c0.2,0.9,0.3,1.8,0.7,2.6C48,15.5,48,17.3,48,19c0,0.5-0.3,0.7-0.7,0.7
		c-0.7,0.1-1.5,0.2-2.2-0.2c-1.2-0.6-2.6-0.6-3.9-0.8c-0.7-0.1-1.1,0.4-1.3,1c-0.7,1.8-1.2,3.6-0.7,5.5c0.1,0.5,0.5,1.1,0,1.4
		c-0.4,0.3-0.9-0.1-1.4-0.3c-0.5-0.3-1.5-0.9-1.7-0.5c-0.5,0.8-1.6,1.2-1.7,2.2c-1.2,0.6-2.3,0.5-3.2-0.6c-0.6-0.7-1.2-1.3-1.8-1.9
		c-0.6-0.5-1.1-0.7-1.5,0.3c-0.9,2.1-1.7,4.2-2.2,6.5c-0.6,2.3-1.4,4.5-2.2,6.7c-0.2,0.5-0.6,0.7-1,0.9c-1.4,0.7-2.7,1.4-4.1,2
		c-1.3,0.1-2.3,0.9-3.5,1.4c-0.7,0.3-0.6,0.6-0.3,0.9c1,0.8,1.1,2.2,1.9,3.2c0.4,1.4,0.1,2.1-1.2,2.2c-1,0.1-1.8,0.7-2.6,1.2
		c-0.6,0.4-0.8,1-0.1,1.5c1.1,0.9,1.4,2.4,2.2,3.5c0.5,0.6,0,1-0.3,1.3c-2.9,2.4-4.9,5.7-7.4,8.5c-0.7,0.8-1.3,1.7-1.9,2.6
		c-0.4,0.5-0.3,1.1,0.5,1c0.9-0.1,1.7-0.2,2.6-0.4c0.2,0,0.4-0.2,0.7-0.2c0.8-0.1,1.8,0,2.2,0.6c0.4,0.7-0.5,1.2-1,1.7
		c-1.2,1.2-2,2.7-3,4c-1.1,1.4-2.2,2.9-3.4,4.3C3,80,3.1,80.4,3.8,81c1.9,1.8,4,3.4,5.4,5.7c0.6,1,0.8,1.5-0.5,2.1
		c-1.7,0.7-3,2.1-4.4,3.4c-0.8,0.7-0.5,1.1,0.4,1.3C5.8,93.7,7,94,8,94.6c1.4,0.8,1.5,1.3,0.6,2.7c-1.6,2.4-3,4.9-4.8,7.2
		c-0.1,0.2-0.3,0.4-0.4,0.6c-0.1,0.4-0.6,0.8-0.2,1.1c0.4,0.4,0.8,0,1.1-0.2c2.2-1.6,4.9-2.2,7.2-3.5c0.4-0.2,0.8-0.6,1.3-0.2
		c0.5,0.5-0.1,0.8-0.1,1.3c-0.4,2-2,3.3-2.7,5.1c-1,2.6-2.2,5.2-3.3,7.8c-0.6,1.4-0.3,1.7,1.1,1.6c1-0.1,1.8-0.7,2.7-1.1
		c1.5-0.6,1.6-0.6,1.7,1.1c0,1.8-0.6,3.4-0.9,5.1c-0.4,2.3-0.7,4.7-1.4,6.9c-0.5,1.6,0,2.1,1.7,1.9c3.2-0.5,6.5-1.1,9.7-1.7
		c0.2,0,0.4-0.1,0.5-0.1c0.6,0,1.3-0.3,1.7,0.3c0.3,0.5,0.2,1.3-0.3,1.8c-0.5,0.4-0.6,1-0.5,1.6l0,0c-0.5,0-0.3,0.8-0.9,0.9
		c-0.4-0.6-0.1-1.2,0.2-1.7c0.7-1.2-0.2-1.4-0.9-1.3c-3.1,0.5-6.3,0.4-9.3,1.5c-1,0.4-2,0.1-3-0.2c-0.6-0.2-0.9-0.6-0.8-1.4
		c0.5-2.5,0.8-5,1.4-7.5c0.3-1.2,0.8-2.3,1-3.5c0.2-1.6,0-1.8-1.5-1.5c-0.9,0.1-1.7,0.4-2.5,0.7c-0.6,0.2-1.2,0.1-1.6-0.4
		c-0.4-0.5-0.2-1,0.2-1.4c0.1-0.1,0.2-0.3,0.2-0.4C5,114.7,7,113,7.9,110.6c0.6-1.6,1.3-3.1,1.9-4.7c0.1-0.3,0.3-0.8,0-1.1
		c-0.4-0.4-0.8-0.1-1.1,0.1c-1.8,1-3.6,2.1-5.4,3.1c-0.5,0.3-1,0.5-1.5,0.6c-0.6,0.2-1.1-0.1-1.5-0.5c-0.3-0.4,0-0.8,0.2-1.2
		c1.5-3.2,3.4-6.2,5.4-9c0.5-0.7,0.6-1.3-0.4-1.6C4,95.9,2.6,94.9,1,94.6c-1.2-0.2-1.3-1-0.4-1.8c1.4-1.2,3.1-2,4.5-3.2
		c0.3-0.3,0.7-0.5,1.1-0.9C7.7,87.1,7.7,86.4,6,85c-1.3-1.1-2.6-2.2-4.1-3.2c-1.5-0.9-1.4-1.8,0-3c2.4-2.1,4.3-4.6,6.1-7.2
		c0.3-0.4,0.5-0.9,0.2-1.3c-0.3-0.5-0.9-0.4-1.4-0.3c-1.6,0.3-3.2,0.6-4.8,0.9c-0.4,0.1-0.9,0.2-1.1-0.3c-0.2-0.5,0.2-0.8,0.5-1.1
		c1.6-1.5,3-3.2,4.1-5.1c1.4-2.3,3.6-3.9,5.4-5.8c2.4-2.5,2.5-3,0-5.5c-0.3-0.3-0.5-0.6-0.7-0.9c-0.7-0.9-0.6-1.4,0.5-1.9
		c1.3-0.6,2.4-1.5,3.8-1.9c0.9-0.3,0.8-1,0.4-1.7c-0.4-0.7-0.9-1.3-1.4-1.9c-1.3-1.5-0.9-2.9,1.1-3.3c1.4-0.2,2.7-0.6,3.8-1.4
		c0.2-0.1,0.4-0.2,0.6-0.2c2.5-0.4,3.3-1.3,3.4-3.8c0-0.8,0.2-1.6,0.5-2.3c1.2-2.5,2-5.1,2.9-7.6c0.2-0.5,0.3-1,0.4-1.5
		c0.3-1.5,1.5-2,2.6-1.1c1.2,0.9,2.4,1.9,3.6,2.8c0.7,0.5,1.1,0.5,1.6-0.3c0.3-0.5,0-2.6,0.4-3.1c0.4-0.5,1.7,0.8,2.5,0.9
		c0.5,0,0.6-0.5,0.6-0.9c0-0.8,0.1-1.6-0.1-2.4c-0.3-1.5,0.7-2.2,1.5-3.2c0.3-0.4,0.8-0.4,1.1-0.2c1.4,0.8,3,0.5,4.4,0.9
		c1.2,0.4,2-0.5,1.5-1.7c-1.1-2.4-0.4-5-1.3-7.3c-0.1-0.3-0.2-0.7,0.1-0.9c0.3-0.3,0.7-0.2,1,0c1.2,0.9,2.7,0.7,4.1,1
		c0.8,0.2,1.1-0.3,1.4-1c0.9-2.1,1.3-4.4,2.4-6.5c1.2-2.3,2.8-2.5,4.4-0.5c0.5,0.7,1.1,1.3,1.5,2c0.7,1.1,1.2,0.6,1.6-0.2
		c0.3-0.6,0.4-1.2,0.7-1.9c0.2-0.4,0.3-0.9,0.9-0.9c0.6,0,1,0.2,1.2,0.7c0.9,2.3,2.7,3.6,4.4,5.1c1.1,1,1.9,2.4,2.9,3.6
		c1,1.3,1.2,1.3,2.3,0.1c2.4-2.7,4.6-5.5,6.3-8.7c0.5-1,1.5-1.1,1.8-0.1c0.8,2.2,2.3,4,2.6,6.4c0.1,1,0.7,1.9,0.9,2.9
		c0.6,2.5,1.1,5,2.1,7.4c0.5,1.3,1,1.3,2,0.7c2.8-1.8,5.3-3.9,8-5.8c1.2-0.9,2.3-1.8,3.2-2.8c0.5-0.6,1.2-0.6,1.8-0.5
		c0.6,0.1,0.3,0.8,0.5,1.2c1.4,3.6,0.8,7.5,2.1,11.1c0.6,1.5,0.9,1.8,2.3,1.1c1.3-0.6,2.5-1.4,3.8-2c0.5-0.3,1.1-0.4,1.6,0
		c0.5,0.4,0.2,1,0.1,1.6c-0.6,2.2-1.2,4.4-1.7,6.6c-0.5,2,1,3,1.8,4.3c1.8,2.8,4,5.4,5.2,8.7c0.7,1.7,1.7,3.6,3.2,4.8
		c2.1,1.7,4,3.7,6.4,4.9c1.5,0.8,2.9,1.8,4.4,2.6c1.1,0.6,1.2,1.3,0.6,2.3c-2.2,3.5-5.3,6.3-7.7,9.6c-2.6,3.6-6.6,5.3-10,7.8
		c-1.2,0.9-2.5,1.5-3.8,2.3c-0.4,0.3-0.7,0.5-0.3,1.1c2.3,3.1,3.6,6.6,4.4,10.4c0.7,3.3,1.8,6.4,2.3,9.7c0.4,2.3,0.5,4.6,0.4,6.9
		c-0.1,2.9,0.1,5.9-0.5,8.8c-0.8,3.5-2.3,6.8-3.8,10.1c-0.9,1.9-1.8,3.8-2.6,5.8c-2.4,5.5-6.5,9.7-10.7,13.6c-1.3,1.2-3,2.1-4.6,3.1
		c-1.6,1-3.3,2-5,3.1c-0.8,0.5-1.7,1-2.6,1.2c-1.6,0.4-2.7,1.8-4.4,2.2c-1.2,0.3-2.1,0.2-3.3,0.1c-1.1-0.1-1.1-0.7-2.3-0.5
		c-0.4,0.1-1,0.4-1.4,0.4c-0.7,0-1.4-0.1-2.3,0.1c-2,0.8-4.2,1.1-5.7,3c-0.2,0.3-0.6,0.5-1,0.2c-0.6-0.5-1.3-0.8-1.2-1.7
		c0.1-1.4,0.1-2.7,0.1-4.1c0-1.2-0.4-1.2-1.3-0.7c-1.6,0.9-3,1.9-4.2,3.3c-0.7,0.8-1.6,1.5-2.4,2.1c-1.5,1.2-2.5,0.7-3-1.2
		c-0.7-2.6-1.4-5.1-2.9-7.3c-0.8-1.1-1.4-1-2.2-0.1c-1.2,1.3-2,2.9-3.3,4.1c-0.9,0.8-1.5,0.8-2.2-0.1c-1-1.3-1.2-3-1.8-4.4
		c-0.3-0.7-0.5-0.7-0.9-0.3c-1.1,1.1-2.2,2.2-3.3,3.2c-0.4,0.4-0.7,0.8-1.3,0.6c-0.6-0.2-0.7-0.7-0.8-1.2c-0.2-1.1-0.4-2.1-0.4-3.2
		c0-0.5,0.2-1.1-0.4-1.4c-0.5-0.2-0.8,0.3-1.2,0.6c-1.4,1.2-2.7,2.6-4,4c-0.4,0.5-0.8,1-1.5,0.7c-0.7-0.3-0.9-1.1-0.6-1.7
		c0.9-2.3,0.5-4.6,0.4-7c-0.1-1.6-0.7-2-2.1-1.3c-2.1,1.1-4.2,2.3-6.4,3.2c-1.1,0.4-1.9,0.1-2.5-0.6c-0.5-0.5,0-1.3,0.4-1.9
		c0.6-0.9,0.8-1.9,1.3-2.8c0.3-0.6,0.5-1.9,1.8-1c0,0.1,0,0.1,0,0.2c-0.2,0-0.3,0.1-0.2,0.3c-0.5,1-1,2-1.5,3c-0.1,0.3-0.5,0.7,0,1
		c0.3,0.2,0.6,0,0.9-0.2c2-0.9,3.9-2.1,5.9-3.1c1.2-0.6,2.3-0.4,3.4-0.3c1.1,0.1,0.9,1.1,0.7,1.8c-0.4,1.9-0.3,3.9-0.5,5.8
		c-0.1,0.5-0.1,1.3,0.5,1.5c0.5,0.2,0.9-0.4,1.2-0.7c1.3-1.3,2.5-2.7,3.7-4.1c0.6-0.7,1-0.5,1.4,0.2c0.8,1.3,0.8,2.8,1,4.2
		c0,0.5,0,1.2,0.6,1.3c0.5,0.1,0.7-0.5,1-0.8c1-1.3,2-2.6,3-3.9c0.3-0.3,0.4-1,1-0.7c0.5,0.2,0.7,0.7,0.8,1.3
		c0.2,1.2,0.3,2.3,0.6,3.5c0.8,3,0.8,3,3,0.8c0.9-0.9,1.3-2.1,2.2-3.1c1-1.2,1.6-1.2,2.5,0.1c1.7,2.6,3.2,5.3,4.6,8.1
		c0.6,1.2,1.1,1.2,1.9,0.3c2-2.2,4.6-3.7,6.8-5.5c0.1-0.1,0.2-0.2,0.3-0.2c0.7-0.3,1.3-1.2,2.1-0.5c0.7,0.6,0.3,1.5,0,2.2
		c-0.3,0.8-0.3,1.7-0.3,2.5c0,0.3,0,0.6,0.3,0.7c0.3,0.1,0.5-0.2,0.6-0.4c1-1.2,1.8-2.6,2.4-4c0.8-1.6,1.7-3.1,2.7-4.6
		c0.3-0.4,0.6-1,1.2-0.7c0.6,0.4,0.4,1,0.1,1.5c-0.9,1.6-1.7,3.1-2.6,4.7c-0.4,0.7-0.9,1.4-1.3,2.2c-0.2,0.3-0.7,0.7-0.4,1.1
		c0.3,0.4,0.8,0.3,1.2,0.2c1.2-0.5,2.5-0.3,3.6-0.8c1.4-0.6,2.8-0.7,4.3-0.2c2.1,0.7,4-0.1,5.7-0.9c3.7-1.6,7.1-3.9,10.3-6.2
		c4.2-3,7.9-6.7,10.5-11.4c1.9-3.5,3.8-7,5.4-10.6c1.4-3.1,2.7-6.3,3.1-9.9c0.5-5.4,0.7-10.9-0.1-16.3c-0.4-2.7-1.5-5.4-2-8.1
		c-0.5-2.8-1.3-5.4-2.9-7.8c-1-1.5-1.2-1.7-2.8-0.9c-1.9,0.9-3.7,2-5.9,2.5c-0.4,0.1-0.8,0.2-1.2,0.2c-0.5,0-0.8-0.3-0.4-0.7
		c0.5-0.5,1-1.2,1.8-1.3c2.7-0.2,4.8-1.9,6.9-3.3c2.2-1.4,4.3-2.8,6.6-4c2.8-1.5,5.2-3.7,7.2-6.1c0.7-0.8,1-1.9-0.3-2.7
		c-0.9-0.5-0.5-1.4-0.4-1.9c0.7-2.9,0.1-6.1,2.4-8.5c0.1-0.1,0.3-0.5,0.2-0.6c-0.1-0.4-0.5-0.2-0.7-0.2c-0.3,0.1-0.6,0.2-0.8,0.4
		c-2.8,2.2-6.1,2.6-9.5,2.5c-2.7-0.1-5.9-3.6-6.4-6.6c-0.4-2.8,1.6-6.1,4.4-7.1c1.3-0.5,2.5-0.9,3.9-0.2c-0.2,0.7-0.8,0.6-1.2,0.8
		c-2.4,0.7-4.3,2.2-5.4,4.5c-1.3,2.6,1.2,6.8,4.1,6.9c0.7,0,1.4-0.1,0.9-1.1c-0.6-1.2,0.6-1.9,0.9-2.8c0.4-1.2,1-2.5,2.2-3.1
		c0.7-0.4,0.8-0.9,0.5-1.6c-1.9-3.8-3.7-7.7-6.5-11c-0.3-0.4-0.5-0.8-1.1-0.9c-1.3-0.2-1.2-1-1-2.1c0.4-2.1,0.8-4.3,1.3-6.4
		c0.1-0.3,0.4-0.7,0-1c-0.4-0.3-0.8-0.1-1.2,0.1c-0.9,0.6-1.8,0.9-2.8,1.1c-1.4,0.4-2.2-0.1-2.7-1.4c-1.4-3.2-1.8-6.6-2.4-10
		c-0.3-1.7-0.4-1.7-1.7-0.7c-3,2.5-6.1,4.8-9.4,6.9c-1.1,0.6-1.9,1.9-3.3,1.1c-1.1-0.7-1.2-2-1.5-3.2c-0.6-2.2-1.1-4.5-1.9-6.7
		c-0.7-1.9-1-3.9-1.7-5.8c-0.7-1.8-1-1.9-2.2-0.4c-0.8,1-1.5,2-2.3,3c-1.1,0.8-1.9,2.1-2.5,3.2C73.6,13.4,72.8,13.7,70.7,11.6z"/>
	<path class="st4" d="M76.9,129.7c0.1,1-0.5,1.1-1.1,1.1c-2.9,0.1-5.8,0.5-8.6,1.4c-0.7,0.2-1.2,0.8-2.1,0.7c-0.4-0.1-0.8,0-1-0.4
		c-0.2-0.4-0.1-0.7,0.2-1c1.8-2.3,2.7-5,3.9-7.6c1.2-2.5,2.9-4.6,4.5-6.8c0.2-0.4,0.6-0.6,1.1-0.5c0.5,0.2,0.5,0.6,0.5,1.1
		c0,0.6-0.1,1.1-0.4,1.6c-1.8,3.1-3.6,6.3-5.3,9.4c-0.3,0.5-0.8,1-0.4,1.5c0.3,0.4,1,0,1.4-0.1c1.7-0.5,3.4-1.2,5.1-1.7
		C76.2,128,76.9,128.5,76.9,129.7z"/>
	<path class="st4" d="M70.4,91.2c-0.5,0-0.9,0.1-1.4,0c-1.4-0.2-1.9-1.2-1.3-2.4c0.8-2,1.9-4,2.4-6.1c0.1-0.4,0.3-1,0.9-0.9
		c0.6,0.1,0.6,0.7,0.5,1.1c-0.4,1.6-0.7,3.3-1.2,4.9c-0.2,0.7-0.6,1.4-0.1,2c0.5,0.6,1.2,0.1,1.8,0c2.4-0.5,4.7-1.7,7-2.6
		c0.9-0.3,3,0.4,3.4,1.3c0.3,0.9-0.5,1.1-1,1.2c-0.9,0.2-1.9,0.2-2.9,0.2c-2.1,0.1-4.1,0.4-6.1,1.2C71.7,91.4,71,91.2,70.4,91.2z"/>
	<path class="st4" d="M72.3,45.7c2.8,0,5.5,0.6,8.1,1.5c0.3,0.1,0.7,0.2,0.7,0.6C81,48.2,80.6,48,80.3,48c-1.8-0.1-3.4-1.1-5.2-1.2
		c-0.8,0-1.6-0.1-2.3,0c-1.4,0.2-1.6,0.7-0.8,1.8c0.6,0.8,1.2,1.6,1.8,2.3c0.3,0.4,0.5,0.7,0,1.2c-0.4,0.4-0.9,0.8-1.4,0.3
		c-1.6-1.6-2.7-3.4-3.2-5.6c-0.1-0.6,0.2-0.9,0.8-0.9C70.7,45.8,71.5,45.7,72.3,45.7z"/>
	<path class="st4" d="M90.7,25.5c0.6,0,1,0.5,1.4,0.9c1,1.1,1.9,2.4,3.1,3.5c0.4,0.3,0.7,0.7,0.3,1.2c-0.5,0.5-1.1,0.4-1.4-0.1
		c-0.7-1.1-1.9-1.7-2.8-2.6c-0.9-0.9-1.6-0.7-2.2,0.4c-0.9,1.6-2.2,2.9-3.2,4.4c-0.6,0.9-1.4,0.4-1.9,0c-0.6-0.5,0.1-0.8,0.4-1.1
		c1.8-1.4,2.8-3.5,4.2-5.2C89.1,26.2,89.7,25.4,90.7,25.5z"/>
	<path class="st5" d="M21.8,136.2c0-0.2,0-0.3,0.2-0.3C22,136.1,22,136.2,21.8,136.2z"/>
	<path class="st4" d="M21.7,133.8c0,0-0.3,1-1.1,2.1l1,0.6c0,0,2.1-1.8,1.7-4.5"/>
</g>
</svg>
